<svg width="24" height="24" viewBox="0 0 24 24" fill="none" xmlns="http://www.w3.org/2000/svg">
<path d="M18.4688 1.87188C20.4457 1.87188 22.0488 3.47496 22.0488 5.45195V16.2322L22.0449 16.2361V14.9646H18.4658C16.5311 14.9646 14.9622 16.534 14.9619 18.4686V22.0477H16.7627V18.4686C16.763 17.5281 17.5253 16.7654 18.4658 16.7654H21.5791C20.7857 17.6679 20.1248 18.3994 19.4668 19.1248C18.7473 19.918 18.0326 20.7053 17.1494 21.7146L16.8574 22.0486H5.45215C3.47516 22.0486 1.87207 20.4455 1.87207 18.4686V5.45195C1.87207 3.47496 3.47516 1.87188 5.45215 1.87188H18.4688ZM16.2139 8.93731C15.873 8.6202 15.3507 8.61862 15.0078 8.91875L14.9414 8.9832L11.1338 13.074L9.05957 10.8455L8.99316 10.782C8.65046 10.4813 8.12828 10.4827 7.78711 10.7996C7.44596 11.1171 7.40704 11.6381 7.68262 12.0018L7.74121 12.0721L10.4746 15.0096C10.6448 15.1925 10.884 15.2966 11.1338 15.2967C11.3835 15.2966 11.6228 15.1924 11.793 15.0096L16.2588 10.2098C16.5969 9.84591 16.5775 9.27579 16.2139 8.93731Z" fill="#19A619"/>
</svg>
