<svg width="24" height="24" viewBox="0 0 24 24" fill="none" xmlns="http://www.w3.org/2000/svg">
<path d="M22.5 20.5371C22.4994 22.359 21.0222 23.8367 19.2002 23.8369H4.80078C2.97862 23.8369 1.50062 22.3591 1.5 20.5371V12.415L1.55176 12.4365C2.85759 12.9687 4.17558 13.4804 5.4873 13.9873C7.24034 14.6647 8.98255 15.3334 10.6973 16.0381C11.5341 16.3819 12.4804 16.3759 13.3154 16.0049L22.5 11.9219V20.5371ZM19.2002 3.90625C21.0225 3.90646 22.4999 5.38471 22.5 7.20703V9.95605C22.4779 9.9639 22.4554 9.97272 22.4336 9.98242L12.585 14.3604C12.2075 14.528 11.7723 14.5334 11.3818 14.373C9.64527 13.6594 7.88162 12.9833 6.13574 12.3086C4.82341 11.8015 3.51885 11.2942 2.23145 10.7695L1.5 10.4658V7.20703C1.50011 5.38458 2.97831 3.90625 4.80078 3.90625H19.2002ZM12 9.30273C11.5029 9.30273 11.0996 9.70607 11.0996 10.2031V11.6436C11.0999 12.1403 11.5032 12.543 12 12.543C12.4968 12.543 12.9001 12.1403 12.9004 11.6436V10.2031C12.9004 9.70607 12.4971 9.30273 12 9.30273Z" fill="#19A619"/>
<path d="M15.5984 4.79922V3.94208C15.5984 2.42724 14.3704 1.19922 12.8556 1.19922H11.1413C9.62646 1.19922 8.39844 2.42724 8.39844 3.94208V4.79922" stroke="#19A619" stroke-width="1.8"/>
</svg>
