<svg width="24" height="24" viewBox="0 0 24 24" fill="none" xmlns="http://www.w3.org/2000/svg">
<path fill-rule="evenodd" clip-rule="evenodd" d="M19.2012 1.50117C21.0237 1.50117 22.501 2.97941 22.501 4.80195V19.2014C22.501 21.0239 21.0237 22.5012 19.2012 22.5012H4.80176C2.97922 22.5012 1.50098 21.0239 1.50098 19.2014V4.80195C1.50098 2.97941 2.97922 1.50117 4.80176 1.50117H19.2012ZM7.19824 15.9016C6.70132 15.9016 6.29806 16.3051 6.29785 16.802C6.29785 17.299 6.70119 17.7023 7.19824 17.7023H7.88379L7.97559 17.6975C8.42959 17.6515 8.78418 17.2681 8.78418 16.802C8.78398 16.336 8.42948 15.9523 7.97559 15.9064L7.88379 15.9016H7.19824ZM11.3125 15.9016C10.8156 15.9016 10.4123 16.3051 10.4121 16.802C10.4121 17.299 10.8155 17.7023 11.3125 17.7023H16.7979L16.8906 17.6975C17.3443 17.6512 17.6982 17.2678 17.6982 16.802C17.698 16.3363 17.3442 15.9527 16.8906 15.9064L16.7979 15.9016H11.3125ZM7.19824 11.1018C6.70125 11.1018 6.29796 11.5052 6.29785 12.0021C6.29785 12.4992 6.70119 12.9025 7.19824 12.9025H7.88379L7.97559 12.8977C8.4296 12.8517 8.78418 12.4683 8.78418 12.0021C8.78408 11.5361 8.42955 11.1525 7.97559 11.1066L7.88379 11.1018H7.19824ZM11.3125 11.1018C10.8155 11.1018 10.4122 11.5052 10.4121 12.0021C10.4121 12.4992 10.8155 12.9025 11.3125 12.9025H16.7979L16.8906 12.8977C17.3443 12.8514 17.6982 12.468 17.6982 12.0021C17.6981 11.5364 17.3442 11.1529 16.8906 11.1066L16.7979 11.1018H11.3125ZM7.19824 6.30195C6.70119 6.30195 6.29785 6.70529 6.29785 7.20234C6.29785 7.6994 6.70119 8.10273 7.19824 8.10273H7.88379L7.97559 8.09785C8.42961 8.05195 8.78418 7.66847 8.78418 7.20234C8.78418 6.73622 8.42961 6.35274 7.97559 6.30684L7.88379 6.30195H7.19824ZM11.3125 6.30195C10.8155 6.30197 10.4121 6.7053 10.4121 7.20234C10.4121 7.69939 10.8155 8.10272 11.3125 8.10273H16.7979L16.8906 8.09785C17.3443 8.0516 17.6982 7.66822 17.6982 7.20234C17.6982 6.73647 17.3443 6.35308 16.8906 6.30684L16.7979 6.30195H11.3125Z" fill="#19A619"/>
</svg>
