<svg width="24" height="24" viewBox="0 0 24 24" fill="none" xmlns="http://www.w3.org/2000/svg">
<g clip-path="url(#clip0_1114_35842)">
<path d="M11.2002 2.36914C11.5377 1.72865 12.4554 1.72876 12.793 2.36914L14.9961 6.55371C15.4184 7.3556 16.2154 7.89229 17.1172 7.98242L21.6426 8.43457C22.3693 8.50721 22.7116 9.36984 22.2324 9.9209L18.7314 13.9424C18.2151 14.5357 17.9836 15.3251 18.0967 16.1035L18.7832 20.8262C18.8871 21.5418 18.1468 22.0811 17.4971 21.7637L13.1816 19.6553C12.4339 19.2901 11.5593 19.29 10.8115 19.6553L6.49609 21.7637C5.84631 22.0812 5.10702 21.5418 5.21094 20.8262L5.89648 16.1035C6.00962 15.3251 5.77814 14.5357 5.26172 13.9424L1.76172 9.9209C1.28234 9.36996 1.62402 8.50751 2.35059 8.43457L6.87695 7.98242C7.7786 7.89218 8.57485 7.3555 8.99707 6.55371L11.2002 2.36914Z" fill="#19A619" stroke="#19A619" stroke-width="1.8"/>
</g>
<defs>
<clipPath id="clip0_1114_35842">
<rect width="24" height="24" fill="white"/>
</clipPath>
</defs>
</svg>
