<svg width="24" height="24" viewBox="0 0 24 24" fill="none" xmlns="http://www.w3.org/2000/svg">
<path d="M22.501 19.3268C22.501 21.1493 21.0237 22.6266 19.2012 22.6266H4.80176C2.97922 22.6266 1.50098 21.1493 1.50098 19.3268V9.30137H22.501V19.3268Z" fill="#19A619"/>
<path d="M19.2012 1.62657C21.0236 1.62657 22.5008 3.10499 22.501 4.92735V7.50059H1.50098V4.92735C1.50119 3.10498 2.97935 1.62657 4.80176 1.62657H6.98535V3.20078C6.98535 3.69784 7.38869 4.10118 7.88574 4.10118C8.3828 4.10118 8.78613 3.69784 8.78613 3.20078V1.62657H15.2168V3.20078C15.2168 3.69784 15.6201 4.10118 16.1172 4.10118C16.6142 4.10118 17.0176 3.69784 17.0176 3.20078V1.62657H19.2012Z" fill="#19A619"/>
<path d="M17.0137 1.17149L17.0137 1.62657L15.2129 1.62657L15.2129 1.17149C15.2129 0.674431 15.6162 0.271097 16.1133 0.271097C16.6103 0.271097 17.0137 0.674432 17.0137 1.17149Z" fill="#19A619"/>
<path d="M8.78711 1.17149L8.78711 1.62656L6.98633 1.62656L6.98633 1.17149C6.98633 0.67443 7.38966 0.271095 7.88672 0.271095C8.38378 0.271095 8.78711 0.67443 8.78711 1.17149Z" fill="#19A619"/>
</svg>
